<svg id="4a8a7448-c43e-4db1-a4a1-96f0d84cb200" data-name="Layer 1" xmlns="http://www.w3.org/2000/svg" viewBox="0 0 156 38"><defs><style>.\34 17c4654-f4db-4698-9fa4-23ee1ba93c92{fill:#12143d;}.\34 209f3ec-7bbf-498e-9c42-8b073f967827{fill:#535454;}.\37 2521fc5-997d-4a01-bda3-8d9108ad183a{fill:#e32e2d;}</style></defs><title>Untitled-1</title><path class="417c4654-f4db-4698-9fa4-23ee1ba93c92" d="M152,22.53a2.37,2.37,0,0,1,1.13.3,2.12,2.12,0,0,1,.86.85,2.31,2.31,0,0,1,0,2.3,2.14,2.14,0,0,1-.85.85,2.32,2.32,0,0,1-2.29,0A2.15,2.15,0,0,1,150,26a2.3,2.3,0,0,1,0-2.3,2.13,2.13,0,0,1,.86-.85A2.37,2.37,0,0,1,152,22.53Zm0,.38a2,2,0,0,0-.95.25,1.78,1.78,0,0,0-.72.71,1.91,1.91,0,0,0,0,1.91,1.81,1.81,0,0,0,.71.71,1.92,1.92,0,0,0,1.91,0,1.8,1.8,0,0,0,.71-.71,1.92,1.92,0,0,0,0-1.91,1.77,1.77,0,0,0-.72-.71A2,2,0,0,0,152,22.91Zm-1,3.19V23.63h.85a2.09,2.09,0,0,1,.63.07.61.61,0,0,1,.31.24.64.64,0,0,1,.12.36.66.66,0,0,1-.19.47.77.77,0,0,1-.51.23.68.68,0,0,1,.21.13,2.82,2.82,0,0,1,.37.49l.3.48h-.49l-.22-.39a2,2,0,0,0-.42-.58.52.52,0,0,0-.32-.09h-.24V26.1Zm.4-1.39h.49a.78.78,0,0,0,.48-.1.34.34,0,0,0,.13-.27.33.33,0,0,0-.06-.2.37.37,0,0,0-.17-.13,1.26,1.26,0,0,0-.4,0h-.46Z"/><path class="4209f3ec-7bbf-498e-9c42-8b073f967827" d="M51.95,33.71l.14-.64h2.49l-.49,2.31a4.54,4.54,0,0,1-1.07.48,4,4,0,0,1-1.18.19A2.26,2.26,0,0,1,50,35.3a2.48,2.48,0,0,1-.52-1.62,3.86,3.86,0,0,1,.45-1.86,3.07,3.07,0,0,1,1.14-1.24,3,3,0,0,1,1.53-.4,2.59,2.59,0,0,1,1.09.22,1.76,1.76,0,0,1,.74.58,2.46,2.46,0,0,1,.37,1L54,32a1.51,1.51,0,0,0-.5-.9,1.48,1.48,0,0,0-1-.31,2.13,2.13,0,0,0-1.15.34,2.32,2.32,0,0,0-.86,1,3.54,3.54,0,0,0-.32,1.54A1.79,1.79,0,0,0,50.66,35a1.55,1.55,0,0,0,1.17.44,3.24,3.24,0,0,0,1.59-.49l.26-1.22Z"/><path class="4209f3ec-7bbf-498e-9c42-8b073f967827" d="M55.48,36l1.19-5.68h.7L56.18,36Z"/><path class="4209f3ec-7bbf-498e-9c42-8b073f967827" d="M57.82,34.39a2.87,2.87,0,0,1,.71-2,2,2,0,0,1,1.54-.65,1.61,1.61,0,0,1,1.2.46,1.71,1.71,0,0,1,.46,1.25,3.06,3.06,0,0,1-.29,1.32,2.13,2.13,0,0,1-.82.94,2.1,2.1,0,0,1-1.12.33,1.86,1.86,0,0,1-.88-.21,1.42,1.42,0,0,1-.6-.58A1.77,1.77,0,0,1,57.82,34.39Zm.7-.07a1.25,1.25,0,0,0,.28.88.93.93,0,0,0,.71.3,1.17,1.17,0,0,0,.45-.09,1.3,1.3,0,0,0,.41-.28,1.88,1.88,0,0,0,.32-.42,2.48,2.48,0,0,0,.22-.51,2.45,2.45,0,0,0,.12-.74,1.24,1.24,0,0,0-.28-.87.92.92,0,0,0-.71-.31,1.18,1.18,0,0,0-.6.16,1.61,1.61,0,0,0-.49.46,2.06,2.06,0,0,0-.32.7A2.92,2.92,0,0,0,58.52,34.32Z"/><path class="4209f3ec-7bbf-498e-9c42-8b073f967827" d="M62.52,36l1.19-5.68h.7l-.42,2a2.49,2.49,0,0,1,.61-.43,1.33,1.33,0,0,1,.57-.13,1.24,1.24,0,0,1,1,.43,1.82,1.82,0,0,1,.39,1.25,3.06,3.06,0,0,1-.16,1,2.78,2.78,0,0,1-.38.76,2.41,2.41,0,0,1-.47.49A1.88,1.88,0,0,1,65,36a1.47,1.47,0,0,1-.49.09,1.23,1.23,0,0,1-.72-.21,1.39,1.39,0,0,1-.49-.66l-.16.78Zm1-1.69v.13a1.15,1.15,0,0,0,.25.8.82.82,0,0,0,.63.27,1,1,0,0,0,.68-.26,1.84,1.84,0,0,0,.51-.8,3,3,0,0,0,.2-1,1.18,1.18,0,0,0-.25-.81.79.79,0,0,0-.62-.29,1,1,0,0,0-.7.29,2.19,2.19,0,0,0-.53.9A2.37,2.37,0,0,0,63.56,34.26Z"/><path class="4209f3ec-7bbf-498e-9c42-8b073f967827" d="M70.11,35.44a2.78,2.78,0,0,1-.7.46,1.81,1.81,0,0,1-.72.15,1.27,1.27,0,0,1-.92-.33,1.14,1.14,0,0,1-.35-.86,1.17,1.17,0,0,1,.16-.61,1.23,1.23,0,0,1,.42-.43,1.83,1.83,0,0,1,.64-.23,7.07,7.07,0,0,1,.9-.07,3.21,3.21,0,0,0,.95-.14,1.82,1.82,0,0,0,.08-.48.46.46,0,0,0-.18-.38,1.13,1.13,0,0,0-.71-.19,1.24,1.24,0,0,0-.72.2,1.1,1.1,0,0,0-.41.56L67.82,33a1.85,1.85,0,0,1,.69-.94,2,2,0,0,1,1.19-.33,1.86,1.86,0,0,1,1.21.36.86.86,0,0,1,.34.7,3.55,3.55,0,0,1-.1.76l-.23,1a3.81,3.81,0,0,0-.11.79,2.66,2.66,0,0,0,.09.56h-.71A2.57,2.57,0,0,1,70.11,35.44Zm.26-1.57a1.65,1.65,0,0,1-.32.09l-.56.07a4.31,4.31,0,0,0-.87.14.73.73,0,0,0-.38.27.68.68,0,0,0-.13.4.63.63,0,0,0,.2.48.82.82,0,0,0,.58.19,1.37,1.37,0,0,0,1.18-.7A3,3,0,0,0,70.37,33.87Z"/><path class="4209f3ec-7bbf-498e-9c42-8b073f967827" d="M72.1,36l1.19-5.68H74L72.8,36Z"/><path class="4209f3ec-7bbf-498e-9c42-8b073f967827" d="M77,36l1.19-5.68h.76l-1.05,5h3l-.14.64Z"/><path class="4209f3ec-7bbf-498e-9c42-8b073f967827" d="M84.77,34.55l.68.07a2.06,2.06,0,0,1-.68,1,1.87,1.87,0,0,1-1.26.46,1.71,1.71,0,0,1-.84-.21,1.39,1.39,0,0,1-.58-.61,2,2,0,0,1-.2-.92A2.92,2.92,0,0,1,82.2,33a2.22,2.22,0,0,1,.81-.94,2,2,0,0,1,1.08-.31,1.56,1.56,0,0,1,1.18.46,1.72,1.72,0,0,1,.44,1.25,3.7,3.7,0,0,1-.05.62h-3a1.79,1.79,0,0,0,0,.22,1.3,1.3,0,0,0,.27.88.83.83,0,0,0,.65.3,1.26,1.26,0,0,0,.71-.24A1.54,1.54,0,0,0,84.77,34.55Zm-2-1H85c0-.07,0-.12,0-.16a1.14,1.14,0,0,0-.26-.81.89.89,0,0,0-.68-.28,1.25,1.25,0,0,0-.82.31A1.85,1.85,0,0,0,82.73,33.54Z"/><path class="4209f3ec-7bbf-498e-9c42-8b073f967827" d="M89.34,35.44a2.78,2.78,0,0,1-.7.46,1.81,1.81,0,0,1-.72.15,1.27,1.27,0,0,1-.92-.33,1.14,1.14,0,0,1-.35-.86,1.17,1.17,0,0,1,.16-.61,1.23,1.23,0,0,1,.42-.43,1.83,1.83,0,0,1,.64-.23,7.07,7.07,0,0,1,.9-.07,3.21,3.21,0,0,0,.95-.14,1.82,1.82,0,0,0,.08-.48.46.46,0,0,0-.18-.38,1.13,1.13,0,0,0-.71-.19,1.24,1.24,0,0,0-.72.2,1.1,1.1,0,0,0-.41.56L87,33a1.85,1.85,0,0,1,.69-.94,2,2,0,0,1,1.19-.33,1.86,1.86,0,0,1,1.21.36.86.86,0,0,1,.34.7,3.55,3.55,0,0,1-.1.76l-.23,1a3.81,3.81,0,0,0-.11.79,2.66,2.66,0,0,0,.09.56h-.71A2.57,2.57,0,0,1,89.34,35.44Zm.26-1.57a1.65,1.65,0,0,1-.32.09l-.56.07a4.31,4.31,0,0,0-.87.14.73.73,0,0,0-.38.27.68.68,0,0,0-.13.4.63.63,0,0,0,.2.48.82.82,0,0,0,.58.19,1.37,1.37,0,0,0,1.18-.7A3,3,0,0,0,89.6,33.87Z"/><path class="4209f3ec-7bbf-498e-9c42-8b073f967827" d="M91.38,36l.86-4.11h.62l-.17.84a2.87,2.87,0,0,1,.62-.7,1,1,0,0,1,.62-.23,1.23,1.23,0,0,1,.52.15l-.29.65a.67.67,0,0,0-.4-.13,1.08,1.08,0,0,0-.76.41,3.12,3.12,0,0,0-.61,1.48L92,36Z"/><path class="4209f3ec-7bbf-498e-9c42-8b073f967827" d="M94.42,36l.86-4.11h.64l-.15.72a3.37,3.37,0,0,1,.78-.62,1.54,1.54,0,0,1,.74-.19,1.1,1.1,0,0,1,.79.27,1,1,0,0,1,.29.72,4,4,0,0,1-.1.72L97.73,36H97l.55-2.61a3,3,0,0,0,.08-.56.43.43,0,0,0-.14-.33.59.59,0,0,0-.41-.13,1.38,1.38,0,0,0-1,.39A2.48,2.48,0,0,0,95.52,34L95.12,36Z"/><path class="4209f3ec-7bbf-498e-9c42-8b073f967827" d="M99.21,36l.86-4.11h.7L99.91,36Zm1-4.88.17-.79h.7l-.17.79Z"/><path class="4209f3ec-7bbf-498e-9c42-8b073f967827" d="M101.4,36l.86-4.11h.64l-.15.72a3.37,3.37,0,0,1,.78-.62,1.54,1.54,0,0,1,.74-.19A1.1,1.1,0,0,1,105,32a1,1,0,0,1,.29.72,4,4,0,0,1-.1.72L104.71,36H104l.55-2.61a3,3,0,0,0,.08-.56.43.43,0,0,0-.14-.33.59.59,0,0,0-.41-.13,1.38,1.38,0,0,0-1,.39A2.48,2.48,0,0,0,102.5,34L102.1,36Z"/><path class="4209f3ec-7bbf-498e-9c42-8b073f967827" d="M106.18,36.32l.71.07a.72.72,0,0,0,.06.36.44.44,0,0,0,.21.19,1.22,1.22,0,0,0,.49.09,1.14,1.14,0,0,0,.92-.33,2.51,2.51,0,0,0,.34-1l.07-.33a1.63,1.63,0,0,1-1.16.55,1.36,1.36,0,0,1-1-.46,1.85,1.85,0,0,1-.42-1.3,2.52,2.52,0,0,1,.33-1.27,2.49,2.49,0,0,1,.79-.88,1.72,1.72,0,0,1,.94-.3,1.37,1.37,0,0,1,1.25.77l.14-.67h.64l-.83,4a3.3,3.3,0,0,1-.36,1,1.5,1.5,0,0,1-.61.57,2,2,0,0,1-.91.2,2.56,2.56,0,0,1-.86-.13,1.08,1.08,0,0,1-.54-.37.94.94,0,0,1-.18-.56A1.23,1.23,0,0,1,106.18,36.32Zm.88-2.19a1.88,1.88,0,0,0,.08.64,1,1,0,0,0,.33.45.79.79,0,0,0,.48.16,1.18,1.18,0,0,0,.69-.24,1.68,1.68,0,0,0,.55-.75,2.52,2.52,0,0,0,.21-1,1.14,1.14,0,0,0-.28-.81.92.92,0,0,0-.7-.3,1,1,0,0,0-.5.14,1.49,1.49,0,0,0-.45.42,2,2,0,0,0-.31.67A2.48,2.48,0,0,0,107.06,34.13Z"/><path class="4209f3ec-7bbf-498e-9c42-8b073f967827" d="M113.94,34.12l.74-.07v.2a1.22,1.22,0,0,0,.15.6,1,1,0,0,0,.5.42,2.11,2.11,0,0,0,.83.15,1.59,1.59,0,0,0,1-.3.87.87,0,0,0,.36-.68.73.73,0,0,0-.19-.49,3.61,3.61,0,0,0-1.06-.59,7.58,7.58,0,0,1-.92-.45,1.81,1.81,0,0,1-.57-.55,1.26,1.26,0,0,1-.18-.68,1.37,1.37,0,0,1,.24-.79,1.5,1.5,0,0,1,.7-.54,2.79,2.79,0,0,1,1-.19,2.66,2.66,0,0,1,1.17.23,1.54,1.54,0,0,1,.91,1.36s0,.06,0,.12l-.73.06a1.31,1.31,0,0,0,0-.38,1,1,0,0,0-.24-.4,1.16,1.16,0,0,0-.45-.26,1.94,1.94,0,0,0-.64-.1,1.5,1.5,0,0,0-1,.28.69.69,0,0,0-.26.57.66.66,0,0,0,.11.37,1.11,1.11,0,0,0,.39.32q.2.11,1,.45a6.45,6.45,0,0,1,.85.43,1.47,1.47,0,0,1,.48.5,1.32,1.32,0,0,1,.17.66,1.42,1.42,0,0,1-.28.85,1.81,1.81,0,0,1-.78.6,2.86,2.86,0,0,1-1.14.21,2.73,2.73,0,0,1-1.58-.42A1.71,1.71,0,0,1,113.94,34.12Z"/><path class="4209f3ec-7bbf-498e-9c42-8b073f967827" d="M122.37,34.55l.68.07a2.06,2.06,0,0,1-.68,1,1.87,1.87,0,0,1-1.26.46,1.71,1.71,0,0,1-.84-.21,1.39,1.39,0,0,1-.58-.61,2,2,0,0,1-.2-.92A2.92,2.92,0,0,1,119.8,33a2.22,2.22,0,0,1,.81-.94,2,2,0,0,1,1.08-.31,1.56,1.56,0,0,1,1.18.46,1.72,1.72,0,0,1,.44,1.25,3.7,3.7,0,0,1-.05.62h-3a1.79,1.79,0,0,0,0,.22,1.3,1.3,0,0,0,.27.88.83.83,0,0,0,.65.3,1.26,1.26,0,0,0,.71-.24A1.54,1.54,0,0,0,122.37,34.55Zm-2-1h2.31c0-.07,0-.12,0-.16a1.14,1.14,0,0,0-.26-.81.89.89,0,0,0-.68-.28,1.25,1.25,0,0,0-.82.31A1.85,1.85,0,0,0,120.33,33.54Z"/><path class="4209f3ec-7bbf-498e-9c42-8b073f967827" d="M124.16,36l.86-4.11h.62l-.17.84a2.87,2.87,0,0,1,.62-.7,1,1,0,0,1,.62-.23,1.23,1.23,0,0,1,.52.15l-.29.65a.67.67,0,0,0-.4-.13,1.08,1.08,0,0,0-.76.41,3.12,3.12,0,0,0-.61,1.48L124.83,36Z"/><path class="4209f3ec-7bbf-498e-9c42-8b073f967827" d="M128.24,36l-.67-4.11h.68l.35,2.27q.06.37.14,1.21.2-.44.52-1l1.38-2.47h.74L129,36Z"/><path class="4209f3ec-7bbf-498e-9c42-8b073f967827" d="M131.55,36l.86-4.11h.7L132.25,36Zm1-4.88.17-.79h.7l-.17.79Z"/><path class="4209f3ec-7bbf-498e-9c42-8b073f967827" d="M136.58,34.45l.7.07a2.35,2.35,0,0,1-.75,1.14,1.77,1.77,0,0,1-1.11.37,1.44,1.44,0,0,1-1.09-.43,1.68,1.68,0,0,1-.42-1.21,3.45,3.45,0,0,1,.27-1.32,2.14,2.14,0,0,1,.77-1,2,2,0,0,1,1.14-.34,1.45,1.45,0,0,1,1.05.37,1.31,1.31,0,0,1,.39,1l-.69,0a.84.84,0,0,0-.23-.61.8.8,0,0,0-.59-.22,1.09,1.09,0,0,0-.73.27,1.76,1.76,0,0,0-.49.81,3.38,3.38,0,0,0-.18,1,1.16,1.16,0,0,0,.23.79.74.74,0,0,0,.57.26,1,1,0,0,0,.65-.26A1.7,1.7,0,0,0,136.58,34.45Z"/><path class="4209f3ec-7bbf-498e-9c42-8b073f967827" d="M141.14,34.55l.68.07a2.06,2.06,0,0,1-.68,1,1.87,1.87,0,0,1-1.26.46,1.71,1.71,0,0,1-.84-.21,1.39,1.39,0,0,1-.58-.61,2,2,0,0,1-.2-.92,2.92,2.92,0,0,1,.31-1.31,2.22,2.22,0,0,1,.81-.94,2,2,0,0,1,1.08-.31,1.56,1.56,0,0,1,1.18.46,1.72,1.72,0,0,1,.44,1.25,3.7,3.7,0,0,1-.05.62h-3a1.79,1.79,0,0,0,0,.22,1.3,1.3,0,0,0,.27.88.83.83,0,0,0,.65.3,1.26,1.26,0,0,0,.71-.24A1.54,1.54,0,0,0,141.14,34.55Zm-2-1h2.31c0-.07,0-.12,0-.16a1.14,1.14,0,0,0-.26-.81.89.89,0,0,0-.68-.28,1.25,1.25,0,0,0-.82.31A1.85,1.85,0,0,0,139.1,33.54Z"/><path class="4209f3ec-7bbf-498e-9c42-8b073f967827" d="M143,34.55l.7,0a1.28,1.28,0,0,0,.09.51.74.74,0,0,0,.34.35,1.21,1.21,0,0,0,.58.14,1.1,1.1,0,0,0,.7-.19.55.55,0,0,0,.23-.44.52.52,0,0,0-.14-.34,2.22,2.22,0,0,0-.7-.4,6.64,6.64,0,0,1-.71-.34,1.15,1.15,0,0,1-.39-.37.93.93,0,0,1-.13-.49,1.08,1.08,0,0,1,.39-.84,1.57,1.57,0,0,1,1.09-.35,1.74,1.74,0,0,1,1.18.36,1.24,1.24,0,0,1,.42.94l-.69,0a.78.78,0,0,0-.26-.59,1,1,0,0,0-.7-.22.87.87,0,0,0-.57.17.47.47,0,0,0-.2.36.44.44,0,0,0,.17.34,2.93,2.93,0,0,0,.6.31,4.06,4.06,0,0,1,1,.55,1,1,0,0,1,.33.78,1.1,1.1,0,0,1-.19.6,1.3,1.3,0,0,1-.57.47,2.18,2.18,0,0,1-.91.18,2.06,2.06,0,0,1-1.22-.35A1.25,1.25,0,0,1,143,34.55Z"/><path class="417c4654-f4db-4698-9fa4-23ee1ba93c92" d="M10.05,27.2l0-21.52h5.44V9.23s3.33-5.15,10.67-3a6,6,0,0,1,4,5.39l0,15.55-5.85,0,0-13.41A3.64,3.64,0,0,0,20.25,10a5,5,0,0,0-4.18,5.26c0,4.64,0,12,0,12Z"/><polygon class="417c4654-f4db-4698-9fa4-23ee1ba93c92" points="30.69 5.6 42.33 33.98 52.1 10.13 71.88 10.13 71.88 5.55 48.22 5.55 42.27 20.32 36.38 5.62 30.69 5.6"/><polygon class="72521fc5-997d-4a01-bda3-8d9108ad183a" points="54.95 14.42 53.34 18.36 71.88 18.36 71.88 14.41 54.95 14.42"/><path class="417c4654-f4db-4698-9fa4-23ee1ba93c92" d="M51.55,22.61H75.93V5.55h5.48V9s5-5.35,11.09-2.65c1,.44,3.59,2.4,3.61,5.07,0,1.25,0,2.87,0,2.87l0,12.83H90.36s-.05-12.45-.05-12.72,0-6-5.42-4.31a4.66,4.66,0,0,0-3.1,4.24V27.14H49.68Z"/><path class="417c4654-f4db-4698-9fa4-23ee1ba93c92" d="M117.67,10.73s-.4-5.58-9.95-5.57c-3.4,0-9.14,1.35-9.14,6.46,0,1.89.62,4.15,4.28,5.52,0,0,4.75,1.27,7.56,1.92,0,0,2.21.47,2.11,2.05,0,0-.13,1.83-3.71,2,0,0-4.66.59-5.35-3.19l-4.66.68s.64,6.81,10,6.79c2.72,0,9.54-1.08,9.57-7.29a4.9,4.9,0,0,0-2.91-4.76c-1.43-.72-4-1-7.43-1.88,0,0-4-.77-4-2.31,0-.89,1.23-1.77,3.86-1.85,1.84-.07,4.12.7,4.34,2.48Z"/><path class="417c4654-f4db-4698-9fa4-23ee1ba93c92" d="M149,10.74s-.4-5.58-9.95-5.57c-3.39,0-9.14,1.35-9.14,6.46,0,1.89.67,4,4.32,5.42,0,0,4.71,1.37,7.52,2,0,0,2.21.47,2.12,2.05,0,0-.13,1.84-3.71,2,0,0-4.28.27-4.89-3.26l-5.12.75s.63,6.82,10,6.8c2.71,0,9.54-1.08,9.57-7.29a4.92,4.92,0,0,0-2.91-4.76c-1.43-.73-4-1-7.43-1.88,0,0-4-.77-4-2.31,0-.9,1.23-1.77,3.86-1.86,1.84-.06,4.12.7,4.34,2.49Z"/><rect class="417c4654-f4db-4698-9fa4-23ee1ba93c92" x="121.38" y="5.45" width="5.97" height="21.72"/><rect class="417c4654-f4db-4698-9fa4-23ee1ba93c92" x="1.65" y="0.4" width="5.97" height="26.8"/></svg>